<svg width="608" height="200" viewBox="0 0 608 200" fill="none" xmlns="http://www.w3.org/2000/svg">
<path d="M187.391 126.51L185.812 124.899L172.156 111.231C170.677 109.751 169.504 107.993 168.704 106.059C167.903 104.125 167.491 102.053 167.491 99.9592C167.491 97.8659 167.903 95.793 168.704 93.859C169.504 91.9251 170.677 90.1678 172.156 88.6877L185.812 75.0398V74.9597C186.342 74.4694 186.872 73.9592 187.391 73.4589C195.454 65.3889 199.984 54.4438 199.984 43.0312C199.984 31.6186 195.454 20.6735 187.391 12.6035C179.329 4.53363 168.394 8.50304e-08 156.991 0C145.589 -8.50304e-08 134.654 4.53363 126.591 12.6035C126.001 13.2039 124.592 14.4446 124.592 14.4446L111.196 27.8524C109.718 29.3327 107.962 30.507 106.03 31.3082C104.097 32.1093 102.026 32.5217 99.935 32.5217C97.8436 32.5217 95.7726 32.1093 93.8404 31.3082C91.9081 30.507 90.1525 29.3327 88.6737 27.8524L75.2781 14.4446C74.7183 13.8643 73.9985 13.2039 73.4087 12.6035C65.3086 4.72541 54.4362 0.354613 43.1421 0.436145C31.848 0.517677 21.0396 5.04499 13.0539 13.0392C5.06825 21.0335 0.546826 31.8524 0.467225 43.1568C0.387624 54.4611 4.75624 65.3427 12.6286 73.4489L14.0381 74.8897L27.8636 88.6877C29.3426 90.1678 30.5158 91.9251 31.3162 93.859C32.1167 95.793 32.5286 97.8659 32.5286 99.9592C32.5286 102.053 32.1167 104.125 31.3162 106.059C30.5158 107.993 29.3426 109.751 27.8636 111.231L14.0381 125.069C14.0381 125.069 13.0384 126.069 12.5886 126.55C4.52731 134.62 -0.00093723 145.564 1.45503e-07 156.976C0.000937521 168.388 4.53098 179.331 12.5936 187.4C20.6562 195.469 31.5909 200.001 42.9922 200C54.3935 199.999 65.3274 195.465 73.3887 187.395L74.3884 186.394L88.6637 172.096C90.1425 170.616 91.8981 169.441 93.8304 168.64C95.7626 167.839 97.8336 167.427 99.925 167.427C102.016 167.427 104.087 167.839 106.02 168.64C107.952 169.441 109.708 170.616 111.186 172.096L125.612 186.304L126.611 187.305C130.603 191.301 135.342 194.471 140.557 196.633C145.772 198.796 151.362 199.909 157.008 199.91C162.653 199.91 168.243 198.798 173.459 196.636C178.675 194.474 183.414 191.305 187.406 187.31C191.399 183.315 194.566 178.572 196.726 173.352C198.887 168.131 200 162.536 200 156.886C200 151.235 198.889 145.64 196.729 140.42C194.569 135.199 191.403 130.455 187.411 126.46L187.391 126.51ZM139.407 103.266C130.813 105.705 122.984 110.304 116.668 116.627C110.351 122.95 105.756 130.785 103.319 139.387C103.116 140.103 102.685 140.734 102.091 141.183C101.498 141.632 100.774 141.875 100.03 141.875C99.286 141.875 98.5624 141.632 97.9688 141.183C97.3753 140.734 96.9442 140.103 96.7411 139.387C94.3045 130.785 89.7091 122.95 83.3923 116.627C77.0755 110.304 69.2474 105.705 60.6529 103.266C59.9355 103.066 59.3032 102.637 58.8528 102.043C58.4023 101.449 58.1585 100.725 58.1585 99.9793C58.1585 99.2339 58.4023 98.509 58.8528 97.9155C59.3032 97.3219 59.9355 96.8923 60.6529 96.6923C69.2474 94.2535 77.0755 89.654 83.3923 83.3315C89.7091 77.009 94.3045 69.1738 96.7411 60.5714C96.9442 59.8551 97.3753 59.2246 97.9688 58.7757C98.5624 58.3268 99.286 58.0839 100.03 58.0839C100.774 58.0839 101.498 58.3268 102.091 58.7757C102.685 59.2246 103.116 59.8551 103.319 60.5714C105.756 69.1738 110.351 77.009 116.668 83.3315C122.984 89.654 130.813 94.2535 139.407 96.6923C140.124 96.8945 140.755 97.326 141.203 97.9209C141.652 98.5159 141.894 99.2415 141.892 99.9869C141.889 100.732 141.643 101.456 141.191 102.049C140.739 102.641 140.105 103.068 139.387 103.266H139.407Z" fill="#7E5BED"/>
<path fill-rule="evenodd" clip-rule="evenodd" d="M301.233 36C335.602 36 362.777 64.0966 362.777 98.6152C362.741 112.085 358.545 125.211 350.768 136.184L365.634 150.955L352.366 164L337.84 149.229C327.184 156.956 314.376 161.117 301.233 161.12C266.855 161.12 240 133.174 240 98.6554C240 64.1367 266.845 36 301.233 36ZM301.233 141.001C309.078 141.046 316.777 138.876 323.453 134.739L309.386 120.771L322.374 107.606L336.281 121.574C340.675 114.731 343.007 106.758 342.995 98.6152C342.995 75.0141 324.772 55.7479 301.273 55.7479C277.775 55.7479 259.992 74.974 259.992 98.6152C259.992 121.133 277.725 141.001 301.233 141.001Z" fill="#7E5BED"/>
<path d="M442.123 158.822L441.324 147.784C435.689 153.845 426.458 161.271 414.948 161.271C398.324 161.271 379.621 155.802 379.621 119.517V71.3515H398.803V113.898C398.803 130.113 401.801 141.834 416.547 141.834C429.015 141.834 437.328 133.003 440.685 126.581V71.3916H459.867V158.892L442.123 158.822Z" fill="#7E5BED"/>
<path d="M496.617 43.6239C494.603 41.4788 491.85 40.1874 488.92 40.0138C487.354 39.921 485.786 40.1506 484.312 40.6886C482.838 41.2266 481.488 42.0615 480.347 43.1422C479.206 44.2229 478.296 45.5264 477.675 46.9729C477.053 48.4193 476.733 49.9781 476.733 51.5534C476.733 53.1288 477.053 54.6876 477.675 56.134C478.296 57.5805 479.206 58.884 480.347 59.9647C481.488 61.0454 482.838 61.8803 484.312 62.4183C485.786 62.9563 487.354 63.1859 488.92 63.0931C491.85 62.9195 494.603 61.6281 496.617 59.483C498.63 57.338 499.751 54.5014 499.751 51.5534C499.751 48.6055 498.63 45.7689 496.617 43.6239Z" fill="#7E5BED"/>
<path d="M498.351 158.822V71.3214H479.169V158.822H498.351Z" fill="#7E5BED"/>
<path d="M517.554 158.822V38.4082H536.416V158.822H517.554Z" fill="#7E5BED"/>
<path d="M577.948 71.3216V51.2526H559.245V71.3216H548.695V90.1062H559.245V135.703C559.245 152.721 570.435 161.08 584.022 161.08C593.933 161.08 600.327 156.735 608 146.781L593.134 135.542C592.861 135.878 592.57 136.334 592.24 136.854C590.829 139.074 588.685 142.446 584.022 142.446C579.706 142.446 577.948 139.717 577.948 134.097V90.1062H600.537V71.3216H577.948Z" fill="#7E5BED"/>
</svg>
