<svg width="92" height="36" viewBox="0 0 92 36" fill="none" xmlns="http://www.w3.org/2000/svg">
<path d="M40.2285 29.9874C37.7466 29.7924 35.7537 28.6744 33.6906 27.2373C35.3389 24.5063 36.2275 21.3901 36.266 18.2067C36.3044 15.0233 35.4911 11.8869 33.9093 9.11746C32.3274 6.34806 30.0336 4.0449 27.2619 2.44311C24.4902 0.841325 21.34 -0.00173272 18.1328 2.67377e-06C8.13465 2.67377e-06 1.11145e-05 8.0748 1.11145e-05 17.9994C-0.00391111 21.506 1.03034 24.9365 2.97423 27.8645L2.93907 27.9086L3.06937 28.0113C4.52858 30.1789 6.44525 32.0054 8.68651 33.3644C10.9278 34.7233 13.44 35.5821 16.0489 35.8813C18.6579 36.1804 21.3011 35.9127 23.7955 35.0967C26.2898 34.2807 28.5755 32.9359 30.4941 31.1556C33.1353 33.0157 36.1529 34.7896 40.1199 35.0216C40.2329 35.0287 40.3462 35.0128 40.4528 34.9747C40.5593 34.9367 40.6568 34.8773 40.7393 34.8004C40.8218 34.7234 40.8875 34.6304 40.9324 34.5272C40.9772 34.424 41.0002 34.3127 41 34.2003V30.8066C41 30.5984 40.9203 30.398 40.777 30.2459C40.6338 30.0939 40.4378 30.0015 40.2285 29.9874ZM18.1328 5.03007C20.4074 5.02937 22.6427 5.61829 24.6175 6.73855C26.5923 7.85881 28.2382 9.47157 29.3922 11.4172C30.5463 13.3628 31.1684 15.5739 31.1972 17.8315C31.2259 20.0892 30.6602 22.3151 29.5561 24.2891C26.6232 22.3232 23.1743 20.5935 18.3986 20.5935C13.3478 20.5935 9.40976 22.5213 6.7706 24.3999C5.64158 22.4273 5.05378 20.1952 5.06591 17.9265C5.07805 15.6577 5.68971 13.4319 6.83978 11.4713C7.98985 9.51074 9.63806 7.88403 11.6198 6.75372C13.6015 5.62341 15.8473 5.02907 18.1328 5.03007ZM10.1026 28.2238C12.6766 26.4972 15.4678 25.6205 18.3986 25.6205C21.5848 25.6205 24.0006 26.7055 26.2582 28.1519C23.9658 29.9633 21.1256 30.9556 18.1955 30.9686C15.2655 30.9816 12.4165 30.0147 10.1078 28.2238H10.1026Z" fill="#7E5BED"/>
<path d="M41.154 7.15412C41.0594 7.24881 41.0043 7.37598 41 7.50982L41.0112 18.5617C41.0112 22.6291 44.4061 26 48.6037 26C52.8216 26 56.243 22.6291 56.243 18.5617V7.50982C56.2386 7.37598 56.1836 7.24881 56.089 7.15412C55.9944 7.05944 55.8674 7.00433 55.7337 7H52.4457C52.3106 7 52.1811 7.05371 52.0856 7.14932C51.9901 7.24493 51.9364 7.37461 51.9364 7.50982V18.3476C51.9364 20.2207 50.5196 21.7185 48.5955 21.7185C46.6969 21.7185 45.3076 20.2207 45.3076 18.3476V7.50982C45.3076 7.37461 45.2539 7.24493 45.1584 7.14932C45.0629 7.05371 44.9333 7 44.7983 7H41.5093C41.3756 7.00433 41.2486 7.05944 41.154 7.15412Z" fill="#7E5BED"/>
<path d="M60.6036 7.15412C60.509 7.24881 60.454 7.37598 60.4497 7.50982L60.4476 25.2241C60.4517 25.358 60.5067 25.4853 60.6013 25.58C60.696 25.6748 60.8231 25.7298 60.9569 25.7339H64.1665C64.3002 25.7298 64.4274 25.6748 64.522 25.58C64.6167 25.4853 64.6716 25.358 64.6757 25.2241V7.50982C64.6714 7.37598 64.6164 7.24881 64.5218 7.15412C64.4272 7.05944 64.3002 7.00433 64.1665 7H60.959C60.8253 7.00433 60.6982 7.05944 60.6036 7.15412Z" fill="#7E5BED"/>
<path d="M69.0454 7.50982C69.0454 7.37461 69.0991 7.24493 69.1946 7.14932C69.2901 7.05371 69.4196 7 69.5547 7H72.7357C72.8694 7.00433 72.9964 7.05944 73.091 7.15412C73.1856 7.24881 73.2407 7.37598 73.245 7.50982V21.7991H79.607C79.7421 21.7991 79.8716 21.8528 79.9671 21.9484C80.0626 22.044 80.1163 22.1737 80.1163 22.3089V25.2251C80.1163 25.3603 80.0626 25.49 79.9671 25.5856C79.8716 25.6812 79.7421 25.7349 79.607 25.7349H69.5496C69.4145 25.7349 69.285 25.6812 69.1895 25.5856C69.094 25.49 69.0403 25.3603 69.0403 25.2251L69.0454 7.50982Z" fill="#7E5BED"/>
<path d="M79.6223 10.9348H83.445L83.443 25.2241C83.4471 25.358 83.502 25.4853 83.5967 25.58C83.6913 25.6748 83.8185 25.7298 83.9523 25.7339H87.1587C87.2925 25.7298 87.4197 25.6748 87.5143 25.58C87.609 25.4853 87.6639 25.358 87.668 25.2241V10.9348H91.4907C91.6258 10.9348 91.7553 10.8811 91.8508 10.7855C91.9463 10.6899 92 10.5602 92 10.425V7.50982C92 7.37461 91.9463 7.24493 91.8508 7.14932C91.7553 7.05371 91.6258 7 91.4907 7H79.6223C79.4872 7 79.3577 7.05371 79.2622 7.14932C79.1667 7.24493 79.113 7.37461 79.113 7.50982V10.425C79.113 10.5602 79.1667 10.6899 79.2622 10.7855C79.3577 10.8811 79.4872 10.9348 79.6223 10.9348Z" fill="#7E5BED"/>
</svg>
